<svg width="214" height="36" viewBox="0 0 214 36" fill="none" xmlns="http://www.w3.org/2000/svg">
<path d="M3.40061 11.5862C3.64797 11.2537 3.97373 10.8036 4.23461 10.4818C5.01589 9.5951 5.11726 9.47885 5.82826 8.82326C6.03912 8.65024 6.28918 8.44207 6.53384 8.24607C4.72933 9.77353 4.49954 11.4646 6.15537 12.5095C6.15266 12.5095 6.15266 12.5095 6.15266 12.5122C8.46812 13.9072 13.5424 13.6057 17.5461 11.8187C21.4241 10.0885 22.8556 7.61345 20.9416 6.14276C19.2614 5.8278 17.2582 5.79131 15.1387 6.07517L14.9184 5.71155L15.1009 5.10868C16.3472 4.99648 17.5312 5.02352 18.5531 5.19789C18.8005 5.23979 19.1262 5.31144 19.3696 5.3628C19.8399 5.4777 20.0954 5.54664 20.4022 5.64532C20.7158 5.73859 20.9835 5.83186 21.4498 6.00488C21.9067 6.18466 22.104 6.26577 22.4703 6.44825C22.8806 6.63542 23.2791 6.84712 23.6639 7.08222C26.7133 9.00034 24.8169 12.5 19.4358 14.898C14.0695 17.2879 7.23132 17.6636 4.16702 15.7685C4.16567 15.7658 4.16161 15.7631 4.1535 15.7604H4.15891C2.48551 14.7006 2.30979 13.1623 3.40061 11.5862ZM17.3623 24.9955L17.319 22.8408L15.7876 21.1376C10.7282 22.2839 5.75526 22.0379 2.98969 20.409C2.98023 20.3982 2.95725 20.3874 2.94779 20.3766C1.38252 19.4128 0.99594 18.1692 1.11354 16.8175C0.747228 18.795 0.71749 19.5088 0.770207 21.2011C0.835088 22.2609 1.44741 23.2382 2.6788 24.0087L2.68826 24.0195C5.63631 25.8525 11.7784 26.2499 17.3623 24.9955ZM23.7491 27.4624C16.608 30.3267 7.67062 30.4957 3.78854 27.8449C4.20778 28.8695 4.77823 29.8255 5.48087 30.6809C9.04394 33.114 17.2474 32.9586 23.7991 30.3294C27.6338 28.7925 30.0534 26.7473 30.6887 24.8306L30.8671 24.2534C31.2902 22.7908 31.3699 21.5729 31.4375 20.4888C31.3605 22.8422 28.5881 25.5186 23.7491 27.4624ZM7.98556 32.9789C8.20994 33.1924 8.91553 34.0589 12.4908 35.0159C13.4572 35.2295 15.8903 35.9148 20.3847 34.9186L20.4117 34.509L20.0562 33.9521C15.8862 34.9389 11.254 34.6091 7.98556 32.9789ZM18.3044 15.9348L22.1013 18.8126C22.1013 18.8126 22.9137 19.3979 22.1473 19.8089C21.3836 20.2157 19.4223 21.212 19.4223 21.212L17.4853 20.4888L16.5134 20.9213L18.2274 22.4096L18.2409 24.7251L19.2479 24.2777L19.9156 22.3217C19.9156 22.3217 21.9662 21.5323 22.7799 21.2349C23.5977 20.9443 23.4882 21.9392 23.4882 21.9392L23.0854 26.6852L24.4235 26.0904L26.6268 19.6872C26.6268 19.6872 27.7947 19.1195 28.6165 18.6207C29.437 18.1219 29.7181 17.2946 29.7181 17.2946C29.7181 17.2946 28.9179 16.9499 27.9961 17.227C27.0742 17.5014 25.8726 17.9908 25.8726 17.9908L19.6385 15.3427L18.3044 15.9348ZM10.2713 6.82944L12.849 8.88274L13.5532 8.7773L12.1501 6.93488C12.1501 6.93488 11.8447 6.55369 12.2556 6.46312C12.6692 6.3712 13.7154 6.15763 13.7154 6.15763L14.5021 6.78619L15.032 6.70779L14.4318 5.75346L14.7481 4.69504L14.2358 4.76939L13.6289 5.57503C13.6289 5.57503 12.5638 5.67506 12.1447 5.7102C11.723 5.74264 11.9041 5.28981 11.9041 5.28981L12.7124 3.11621L12.0042 3.22029L10.1388 5.93594C10.1388 5.93594 9.51704 6.04949 9.06692 6.1779C8.61545 6.30497 8.37756 6.65372 8.37756 6.65372C8.37756 6.65372 8.70872 6.92136 9.17506 6.9119C9.64545 6.90244 10.2713 6.82944 10.2713 6.82944ZM23.011 33.2127L21.343 32.3408L20.9591 32.4747L21.9472 33.3587C21.9472 33.3587 22.1581 33.5385 21.9364 33.6345C21.7147 33.7291 21.1497 33.9616 21.1497 33.9616L20.6834 33.7534L20.4063 33.8534L20.7942 34.2671L20.7564 34.8713L21.0457 34.7713L21.2619 34.2806C21.2619 34.2806 21.8486 34.1062 22.0824 34.044C22.3149 33.9805 22.2622 34.2535 22.2622 34.2535L22.0419 35.558L22.4271 35.4242L23.1827 33.6993C23.1827 33.6993 23.5166 33.5682 23.7558 33.4479C23.9951 33.3276 24.0897 33.1059 24.0897 33.1059C24.0897 33.1059 23.8775 32.9897 23.6152 33.0478C23.3517 33.1032 23.011 33.2127 23.011 33.2127Z" fill="white"/>
<path d="M44.944 12.28V31H39.696V12.28H34.288L34.8 8.344H50.064L49.552 12.28H44.944ZM56.007 17.24C56.327 16.1093 56.8603 15.2133 57.607 14.552C58.3537 13.8907 59.2177 13.56 60.199 13.56C61.2017 13.56 62.1083 13.7627 62.919 14.168L61.799 18.04C61.1377 17.848 60.5723 17.752 60.103 17.752C59.271 17.752 58.5137 18.0613 57.831 18.68C57.1697 19.2987 56.839 20.2053 56.839 21.4V31H51.943V18.936L51.591 14.2L55.303 13.72L55.879 17.24H56.007ZM71.4905 19.352C71.4905 18.648 71.3412 18.136 71.0425 17.816C70.7438 17.4747 70.1678 17.304 69.3145 17.304C68.4612 17.304 67.0532 17.6133 65.0905 18.232L63.7145 15.224C64.4398 14.8187 65.4425 14.4453 66.7225 14.104C68.0238 13.7413 69.2932 13.56 70.5305 13.56C71.7892 13.56 72.8345 13.7093 73.6665 14.008C74.5198 14.3067 75.1278 14.7547 75.4905 15.352C75.8745 15.928 76.1198 16.504 76.2265 17.08C76.3545 17.656 76.4185 18.3813 76.4185 19.256V25.272C76.4185 26.0613 76.4932 26.7013 76.6425 27.192C76.8132 27.6827 77.1652 28.216 77.6985 28.792L74.9145 31.384C74.4238 31.1493 73.9438 30.7973 73.4745 30.328C73.0265 29.8587 72.6958 29.4213 72.4825 29.016H72.3545C71.1172 30.5947 69.5492 31.384 67.6505 31.384C64.5785 31.384 63.0425 29.7947 63.0425 26.616C63.0425 24.9307 63.5225 23.672 64.4825 22.84C65.4638 22.008 66.8718 21.432 68.7065 21.112L71.4905 20.632V19.352ZM67.6825 26.104C67.6825 27.1493 68.2372 27.672 69.3465 27.672C70.1998 27.672 70.9252 27.3733 71.5225 26.776V23.768C70.1572 23.96 69.1758 24.2267 68.5785 24.568C67.9812 24.888 67.6825 25.4 67.6825 26.104ZM87.7608 13.688L92.2408 14.2L88.0168 31H82.2888L77.8407 14.168L82.5768 13.688L85.1048 26.648H85.2968L87.7608 13.688ZM100.985 13.56C103.118 13.56 104.686 14.1467 105.689 15.32C106.521 16.28 107.033 17.88 107.225 20.12C107.289 21.016 107.321 22.136 107.321 23.48L105.049 23.8H98.4565C98.4565 25.0587 98.6912 26.008 99.1605 26.648C99.6298 27.2667 100.462 27.576 101.657 27.576C102.873 27.576 104.334 27.2667 106.041 26.648L107.033 29.656C105.006 30.808 102.894 31.384 100.697 31.384C95.7258 31.384 93.2405 28.44 93.2405 22.552C93.2405 19.7787 93.8805 17.592 95.1605 15.992C96.4618 14.3707 98.4032 13.56 100.985 13.56ZM102.073 18.104C101.859 17.6133 101.379 17.368 100.633 17.368C99.8858 17.368 99.3525 17.6453 99.0325 18.2C98.7125 18.7333 98.5312 19.544 98.4885 20.632H102.393C102.393 19.416 102.286 18.5733 102.073 18.104ZM114.556 25.144C114.556 26.1893 114.62 26.9573 114.748 27.448C114.898 27.9387 115.25 28.5253 115.804 29.208L112.284 31.8C111.26 30.712 110.556 29.7627 110.172 28.952C109.81 28.12 109.628 26.8827 109.628 25.24V7.384L114.556 6.84V25.144ZM124.894 8.344H133.086C136.009 8.344 138.025 9.03733 139.134 10.424C140.094 11.6613 140.574 13.24 140.574 15.16C140.574 17.144 139.987 18.8827 138.814 20.376C138.195 21.1867 137.257 21.8373 135.998 22.328C134.761 22.7973 133.267 23.032 131.518 23.032H130.142V31H124.894V8.344ZM130.142 11.928V19.256H131.87C132.958 19.256 133.737 18.968 134.206 18.392C134.697 17.816 134.942 16.9093 134.942 15.672C134.942 14.4133 134.739 13.4747 134.334 12.856C133.929 12.2373 133.107 11.928 131.87 11.928H130.142ZM150.177 13.56C151.351 13.56 152.375 13.7413 153.249 14.104C154.124 14.4667 154.807 14.936 155.297 15.512C155.809 16.0667 156.215 16.76 156.513 17.592C157.004 18.9573 157.249 20.632 157.249 22.616C157.249 25.6667 156.396 27.9813 154.689 29.56C153.388 30.776 151.596 31.384 149.313 31.384C148.14 31.384 147.116 31.2027 146.241 30.84C145.367 30.4773 144.673 30.0187 144.161 29.464C143.671 28.888 143.265 28.184 142.945 27.352C142.455 26.0293 142.209 24.3547 142.209 22.328C142.209 20.4507 142.583 18.7973 143.329 17.368C144.631 14.8293 146.913 13.56 150.177 13.56ZM152.033 22.552C152.033 20.6107 151.884 19.2667 151.585 18.52C151.287 17.752 150.647 17.368 149.665 17.368C148.705 17.368 148.087 17.7307 147.809 18.456C147.553 19.1813 147.425 20.504 147.425 22.424C147.425 24.344 147.575 25.688 147.873 26.456C148.172 27.2027 148.812 27.576 149.793 27.576C150.775 27.576 151.393 27.224 151.649 26.52C151.905 25.7947 152.033 24.472 152.033 22.552ZM163.82 17.24C164.14 16.1093 164.673 15.2133 165.42 14.552C166.166 13.8907 167.03 13.56 168.012 13.56C169.014 13.56 169.921 13.7627 170.732 14.168L169.612 18.04C168.95 17.848 168.385 17.752 167.916 17.752C167.084 17.752 166.326 18.0613 165.644 18.68C164.982 19.2987 164.652 20.2053 164.652 21.4V31H159.756V18.936L159.404 14.2L163.116 13.72L163.692 17.24H163.82ZM177.639 13.816H181.959L181.383 17.368H177.639V24.696C177.639 25.784 177.788 26.5413 178.087 26.968C178.386 27.3947 178.898 27.608 179.623 27.608C179.922 27.608 180.53 27.5013 181.447 27.288L182.311 30.136C181.906 30.456 181.244 30.744 180.327 31C179.431 31.256 178.61 31.384 177.863 31.384C175.751 31.384 174.364 30.8507 173.703 29.784C173.063 28.696 172.743 26.9253 172.743 24.472V17.368H170.279L170.727 14.168L172.839 13.88L173.031 10.68L177.639 9.304V13.816ZM191.334 19.352C191.334 18.648 191.185 18.136 190.886 17.816C190.588 17.4747 190.012 17.304 189.158 17.304C188.305 17.304 186.897 17.6133 184.934 18.232L183.558 15.224C184.284 14.8187 185.286 14.4453 186.566 14.104C187.868 13.7413 189.137 13.56 190.374 13.56C191.633 13.56 192.678 13.7093 193.51 14.008C194.364 14.3067 194.972 14.7547 195.334 15.352C195.718 15.928 195.964 16.504 196.07 17.08C196.198 17.656 196.262 18.3813 196.262 19.256V25.272C196.262 26.0613 196.337 26.7013 196.486 27.192C196.657 27.6827 197.009 28.216 197.542 28.792L194.758 31.384C194.268 31.1493 193.788 30.7973 193.318 30.328C192.87 29.8587 192.54 29.4213 192.326 29.016H192.198C190.961 30.5947 189.393 31.384 187.494 31.384C184.422 31.384 182.886 29.7947 182.886 26.616C182.886 24.9307 183.366 23.672 184.326 22.84C185.308 22.008 186.716 21.432 188.55 21.112L191.334 20.632V19.352ZM187.526 26.104C187.526 27.1493 188.081 27.672 189.19 27.672C190.044 27.672 190.769 27.3733 191.366 26.776V23.768C190.001 23.96 189.02 24.2267 188.422 24.568C187.825 24.888 187.526 25.4 187.526 26.104ZM204.213 25.144C204.213 26.1893 204.277 26.9573 204.405 27.448C204.554 27.9387 204.906 28.5253 205.461 29.208L201.941 31.8C200.917 30.712 200.213 29.7627 199.829 28.952C199.466 28.12 199.285 26.8827 199.285 25.24V7.384L204.213 6.84V25.144Z" fill="white"/>
</svg>
